<svg xmlns="http://www.w3.org/2000/svg" id="Laag_2" data-name="Laag 2" viewBox="0 0 278 102.67" width="278" height="102.67"><defs><style>.cls-2,.cls-4{fill:none}.cls-5{fill:#284bbe}.cls-6,.cls-7,.cls-8{fill:#1e1e1e}.cls-7{stroke-width:.39px}.cls-2,.cls-4,.cls-7,.cls-8{stroke:#1e1e1e;stroke-miterlimit:10}.cls-8{stroke-width:.41px}.cls-2,.cls-4{stroke-width:3.26px}.cls-4{stroke-linecap:round}</style></defs><g id="Laag_1-2" data-name="Laag 1"><path d="m153 17.6 25.8-9.21c1.45-.52 2.99-.79 4.53-.79h3.15a3.02 3.02 0 0 1 2.98 3.48l-1.01 6.57a3.9 3.9 0 0 1-3.43 3.29l-24.03 2.67zM153 84.6l25.8 9.21c1.45.52 2.99.79 4.53.79h3.15a3.02 3.02 0 0 0 2.98-3.48l-1.01-6.57a3.9 3.9 0 0 0-3.43-3.29l-24.03-2.67z" class="cls-6"/><rect width="6.6" height="8.97" x="222.46" y="56.11" class="cls-8" rx="1.49" ry="1.49" transform="rotate(114.59 225.76 60.59)"/><rect width="6.6" height="8.97" x="222.46" y="39.42" class="cls-8" rx="1.49" ry="1.49" transform="rotate(78.43 225.76 43.9)"/><path d="M262 53.6h-12c0-9.84-2.91-14.48-5.99-19.39-2.82-4.49-6.01-9.59-6.01-17.61h12c0 4.57 1.66 7.22 4.18 11.23 3.49 5.56 7.82 12.48 7.82 25.77" class="cls-6"/><path d="M255.14 54.9c-5.63-25.35-11.25-35.15-11.31-35.25l10.31-6.14c.27.44 6.57 11.15 12.71 38.79z" class="cls-5"/><path d="m250.29 18.45 11.41-3.7 12 37-11.4 3.7z" class="cls-6"/><path d="M262 51.6h-12c0 9.84-2.91 14.48-5.99 19.39-2.82 4.49-6.01 9.59-6.01 17.61h12c0-4.57 1.66-7.22 4.18-11.23 3.49-5.56 7.82-12.48 7.82-25.77" class="cls-6"/><path d="M255.14 50.3c-5.63 25.35-11.25 35.15-11.31 35.25l10.31 6.14c.27-.44 6.57-11.15 12.71-38.79z" class="cls-5"/><path d="m250.3 86.76 12-37 11.41 3.7-12 37z" class="cls-6"/><path d="M69.74 15.61H132V86.6H69.74A2.74 2.74 0 0 1 67 83.86V18.34a2.74 2.74 0 0 1 2.74-2.74Z" class="cls-7"/><path d="M180.15 51.12a55.4 55.4 0 0 1-8.02 29.57s-41.78 14.44-103.3-1.84a2.16 2.16 0 0 1-1.66-2.06V25.41c0-.96.68-1.8 1.66-2.06 61.52-16.28 103.3-1.84 103.3-1.84a55.4 55.4 0 0 1 8.02 29.57z" class="cls-7"/><path d="M172.08 41.88v19.43l-12.74 19.74a13.4 13.4 0 0 1-7.79 3.27c-49 3.63-102.38-26.75-102.38-26.75V45.62s53.38-30.38 102.38-26.74c2.88.21 5.61 1.38 7.79 3.27z" class="cls-5"/><path d="m219.78 47.67-6.88-22.32-18.34 19.72 14.98 1.98 3.36-21.7" class="cls-2"/><rect width="37.59" height="19.41" x="192.41" y="5.64" class="cls-6" rx="4.84" ry="4.84"/><path d="m219.62 56.99-6.87 22.31-18.34-19.71 14.97-1.99 3.37 21.7" class="cls-2"/><rect width="37.59" height="19.41" x="192.26" y="79.6" class="cls-6" rx="4.84" ry="4.84"/><path d="M118.19 44.18h9.83v14.25h-9.83z" style="fill:none"/><rect width="2.54" height="14.35" x="164.14" y="63.76" class="cls-8" rx="1.27" ry="1.27"/><rect width="2.54" height="14.35" x="164.14" y="23.92" class="cls-8" rx="1.27" ry="1.27"/><path d="M137.62 42.02h22.16a4.2 4.2 0 0 1 4.22 4.22v10.72a4.2 4.2 0 0 1-4.22 4.22h-22.16a5.9 5.9 0 0 1-5.92-5.92v-7.32a5.9 5.9 0 0 1 5.92-5.92Z" style="fill:#1e1e1e;stroke:#1e1e1e;stroke-miterlimit:10;stroke-width:.44px"/><path d="M270.37 60.18 170 63.06V40.14l100.37 2.88c4.25.14 7.63 3.94 7.63 8.58s-3.38 8.45-7.63 8.58" class="cls-5"/><path d="M47.21 52.19V20.05l21.83 22.42M47.21 53.83v32.14l21.83-22.42" class="cls-4"/><rect width="37.59" height="23.06" x="28.06" y="79.6" class="cls-6" rx="4.84" ry="4.84"/><rect width="37.59" height="23.06" x="28.06" class="cls-6" rx="4.84" ry="4.84"/><rect width="6.6" height="8.97" x="228.46" y="33.42" class="cls-8" rx="1.49" ry="1.49" transform="rotate(90 231.77 37.9)"/><rect width="6.6" height="8.97" x="228.46" y="61.11" class="cls-8" rx="1.49" ry="1.49" transform="rotate(90 231.76 65.59)"/><path d="M30 29.09s14.77 12 41.89 0v45s-16.89-18-40.89-2z" class="cls-6"/><path d="M36 83.44a1 1 0 0 1-1 1H1.19a1.2 1.2 0 0 1 0-2.39A6.8 6.8 0 0 0 8 75.24v-19.4c0-.78-.63-1.4-1.4-1.4H.89a.9.9 0 0 1-.89-.89v-3.92c0-.49.4-.89.89-.89H6.6c.77 0 1.4-.63 1.4-1.4V27.93a6.8 6.8 0 0 0-6.81-6.8 1.2 1.2 0 0 1 0-2.39H35c.55 0 1 .45 1 1s-.45 1-1 1h-1.41a.8.8 0 0 0-.79.79v60.12c0 .43.35.79.79.79H35a1 1 0 0 1 1 1" class="cls-6"/><path d="M9.87 20.52h2.62c.89 0 1.62.72 1.62 1.62v58.91c0 .89-.72 1.62-1.62 1.62H9.87A.87.87 0 0 1 9 81.8V21.39c0-.48.39-.87.87-.87M25.87 20.52h5.62c.89 0 1.62.72 1.62 1.62v58.91c0 .89-.72 1.62-1.62 1.62h-5.62a.87.87 0 0 1-.87-.87V21.39c0-.48.39-.87.87-.87" class="cls-5"/><path d="M14.87 20.52h8.62c.89 0 1.62.72 1.62 1.62v58.91c0 .89-.72 1.62-1.62 1.62h-8.62a.87.87 0 0 1-.87-.87V21.39c0-.48.39-.87.87-.87" class="cls-5"/><rect width="3" height="3" x="13" y="50.09" class="cls-6" rx=".71" ry=".71"/><rect width="9" height="3" x="22" y="50.09" class="cls-6" rx=".71" ry=".71"/><path d="M14.5 51.59H26" style="fill:none;stroke:#1e1e1e;stroke-miterlimit:10;stroke-linecap:round"/><rect width="23" height="5" x="36.5" y="22.1" class="cls-6" rx="1.73" ry="1.73"/><rect width="23" height="5" x="37" y="75.6" class="cls-6" rx="1.73" ry="1.73"/><rect width="34" height="16.57" x="50" y="43.31" class="cls-5" rx="3.99" ry="3.99"/><path d="M131.72 47.44v8.31a1 1 0 0 1-.99.99h-1.72c-7.94-.14-7.19 4.78-6.5 6.9a.7.7 0 0 1-.69.9c-20.7-.89-48.58-7.28-61.06-10.77-2.2-.62-2.2-3.73 0-4.35 12.48-3.49 40.36-9.88 61.06-10.77a.7.7 0 0 1 .69.9c-.68 2.12-1.43 7.04 6.5 6.9h1.72a1 1 0 0 1 .99.99Z" style="fill:#e61f15;stroke:#1e1e1e;stroke-miterlimit:10;stroke-width:.41px"/><path d="M182.88 51.62v.06c-.03.53-.47.96-1.01.96h-.37c-2.83.11-14.02 2.58-16.68 7.29a17 17 0 0 1-16.32 8.55l-11.17-1.03a1.02 1.02 0 1 1 .19-2.02l11.17 1.03a14.9 14.9 0 0 0 13.28-5.88c.19-.25 1.98-5.07 1.98-9.33a21 21 0 0 0-1.98-8.63 15 15 0 0 0-13.28-5.88l-11.17 1.03a1 1 0 0 1-1.11-.92 1 1 0 0 1 .92-1.1l11.17-1.03a17 17 0 0 1 16.32 8.55c2.67 4.71 13.85 7.18 16.68 7.29h.37c.54 0 .99.43 1.01.96z" style="fill:#f2c744;stroke:#1e1e1e;stroke-miterlimit:10;stroke-width:.41px"/><path d="M264.69 25.6h-29.14a2.35 2.35 0 0 1-2.35-2.35v-10.3c0-1.3 1.05-2.35 2.35-2.35h22.33a3.64 3.64 0 0 1 3.53 2.72zM264.69 79.6h-29.14a2.35 2.35 0 0 0-2.35 2.35v10.3c0 1.3 1.05 2.35 2.35 2.35h22.33a3.64 3.64 0 0 0 3.53-2.72z" class="cls-6"/></g></svg>
